<?xml version="1.0" standalone="no"?>
<!DOCTYPE svg PUBLIC "-//W3C//DTD SVG 20010904//EN"
 "http://www.w3.org/TR/2001/REC-SVG-20010904/DTD/svg10.dtd">
<svg version="1.0" xmlns="http://www.w3.org/2000/svg"
 width="899.000000pt" height="1280.000000pt" viewBox="0 0 899.000000 1280.000000"
 preserveAspectRatio="xMidYMid meet">
<g transform="translate(0.000000,1280.000000) scale(0.100000,-0.100000)"
fill="#000000" stroke="none">
<path d="M4862 12766 c-78 -42 -131 -85 -250 -200 -199 -193 -287 -363 -314
-602 -30 -265 79 -610 309 -974 227 -360 358 -645 434 -940 44 -174 80 -259
134 -319 50 -55 78 -55 132 2 176 181 532 934 551 1162 5 74 -5 98 -121 268
-75 111 -121 169 -436 558 -223 276 -303 421 -317 578 -4 44 1 113 15 210 14
90 19 161 15 188 -7 48 -46 103 -72 103 -10 0 -45 -16 -80 -34z"/>
<path d="M2455 12399 c-556 -489 -656 -591 -720 -732 -54 -117 -62 -238 -57
-844 1 -178 5 -323 10 -323 4 0 61 127 126 283 275 652 342 739 592 758 214
17 293 78 389 301 55 126 87 173 141 204 75 44 97 47 394 48 300 1 357 8 399
47 67 62 -29 164 -264 282 -108 54 -639 277 -657 276 -7 0 -166 -135 -353
-300z"/>
<path d="M3322 11839 c-177 -23 -250 -75 -211 -152 22 -43 106 -120 219 -202
195 -141 245 -209 260 -358 9 -88 8 -92 -16 -357 -18 -188 -24 -478 -11 -522
4 -16 14 -28 23 -28 35 0 343 323 516 541 113 143 162 219 162 254 -1 35 -178
486 -236 597 -76 147 -155 208 -293 228 -82 11 -322 11 -413 -1z"/>
<path d="M2914 11386 c-111 -50 -197 -240 -198 -436 0 -80 3 -103 24 -145 45
-95 245 -267 435 -373 92 -52 116 -57 149 -31 22 17 26 28 26 70 0 64 -24 111
-89 172 -28 27 -58 61 -65 76 -31 59 -46 177 -44 334 3 162 -5 208 -44 267
-13 18 -35 42 -49 53 -34 25 -105 31 -145 13z"/>
<path d="M2317 11142 c-90 -60 -176 -265 -238 -568 -28 -136 -33 -181 -33
-309 -1 -173 7 -197 96 -291 134 -142 458 -303 953 -474 297 -103 554 -224
712 -336 33 -24 94 -80 135 -125 82 -91 151 -149 179 -149 16 0 19 8 19 56 0
69 -33 231 -71 346 -57 175 -137 305 -260 424 -157 150 -272 206 -704 339
-339 104 -526 252 -607 480 -32 87 -45 174 -53 340 -8 166 -20 221 -55 257
-33 33 -37 33 -73 10z"/>
<path d="M11 10811 c-19 -12 18 -91 106 -226 91 -138 145 -254 202 -430 61
-186 95 -336 122 -530 73 -533 179 -807 390 -1016 212 -209 467 -294 920 -306
206 -6 313 4 358 34 21 13 23 20 17 64 -12 93 -85 275 -244 614 -143 306 -217
529 -240 730 -25 218 -167 564 -287 701 -48 55 -118 98 -187 113 -25 6 -130
13 -234 15 -303 8 -439 38 -684 155 -171 82 -215 97 -239 82z"/>
<path d="M6580 10704 c-14 -2 -52 -9 -85 -15 -84 -14 -178 -46 -260 -87 -132
-66 -292 -255 -428 -509 -115 -215 -259 -433 -391 -592 -34 -40 -80 -99 -104
-130 -94 -122 -208 -357 -257 -529 -20 -72 -105 -510 -105 -544 0 -7 117 -8
333 -5 356 5 402 10 510 62 153 72 233 211 272 471 10 67 20 229 26 424 12
428 29 532 117 705 108 215 462 545 584 545 40 0 87 46 95 92 5 31 1 40 -22
62 -15 14 -44 30 -64 36 -41 12 -183 21 -221 14z"/>
<path d="M4474 10532 c-21 -16 -78 -70 -127 -122 -208 -221 -212 -354 -27
-829 77 -198 110 -313 139 -481 36 -204 42 -310 35 -595 -7 -275 0 -355 30
-355 79 0 229 494 283 930 25 208 26 773 0 942 -37 247 -86 374 -185 478 -67
70 -89 75 -148 32z"/>
<path d="M2029 9633 c-10 -12 -14 -48 -14 -132 1 -104 4 -126 33 -209 121
-352 425 -852 687 -1130 85 -91 190 -165 334 -237 159 -79 306 -103 429 -71
124 33 296 138 395 239 265 274 100 664 -377 887 -125 59 -272 105 -466 145
-197 41 -313 77 -446 139 -133 63 -196 107 -322 225 -167 156 -219 186 -253
144z"/>
<path d="M6683 9080 c-83 -20 -166 -97 -224 -210 -33 -65 -39 -200 -12 -261
46 -104 132 -162 265 -179 126 -16 223 -80 308 -203 115 -166 157 -219 189
-239 33 -21 34 -21 48 -2 40 52 -39 431 -144 684 -115 281 -286 444 -430 410z"/>
<path d="M5310 8019 c-126 -14 -309 -71 -825 -257 -501 -180 -747 -251 -946
-273 -234 -25 -448 30 -804 209 -522 261 -693 322 -905 322 -133 0 -230 -19
-413 -80 -379 -126 -550 -298 -378 -382 65 -32 211 -36 374 -12 170 25 323 23
407 -5 128 -44 254 -129 520 -350 366 -305 640 -426 965 -426 154 0 235 14
385 67 189 67 346 160 619 366 345 261 560 390 778 466 247 85 485 89 714 10
176 -60 323 -81 349 -49 11 13 10 21 -7 43 -39 53 -161 134 -328 217 -252 125
-353 152 -505 134z"/>
<path d="M5320 7345 c-97 -30 -141 -117 -105 -211 22 -58 69 -90 154 -103 97
-16 174 -73 250 -187 84 -125 111 -250 71 -329 -11 -22 -20 -41 -20 -42 0 -13
84 44 108 73 52 63 77 160 77 299 -1 131 -15 196 -65 296 -81 159 -303 255
-470 204z"/>
<path d="M1711 7090 c-148 -63 -290 -370 -345 -751 -39 -263 -5 -389 91 -338
40 22 63 72 78 174 24 156 96 290 255 475 105 121 146 183 161 242 12 43 11
50 -12 94 -36 69 -87 107 -151 111 -29 1 -64 -2 -77 -7z"/>
<path d="M4578 6886 c-89 -24 -157 -95 -189 -197 -44 -140 -35 -287 32 -556
53 -213 66 -315 50 -388 -13 -58 -30 -80 -136 -172 -47 -41 -48 -42 -43 -92 3
-27 16 -72 30 -98 13 -26 41 -79 61 -118 78 -150 115 -369 124 -730 8 -336
-15 -683 -73 -1085 -39 -274 -67 -372 -122 -422 -40 -37 -67 -40 -164 -17 -96
23 -121 18 -138 -27 -14 -36 -12 -132 5 -269 19 -154 19 -358 0 -471 -71 -414
-310 -893 -780 -1564 -156 -223 -232 -343 -296 -472 -57 -113 -71 -175 -45
-197 14 -12 25 -10 76 12 172 74 450 317 715 627 161 188 286 378 445 681 320
606 575 1257 730 1859 91 352 163 567 254 756 154 319 305 523 802 1085 279
315 346 393 392 458 57 79 43 80 -104 7 -284 -139 -568 -346 -987 -719 -131
-117 -243 -212 -250 -212 -9 0 -13 139 -18 575 -3 316 -11 640 -18 720 -37
463 -92 778 -163 933 -49 106 -82 122 -190 93z"/>
<path d="M3363 6466 c-18 -8 -42 -30 -53 -48 -38 -62 -21 -137 54 -247 100
-145 128 -329 90 -593 -33 -224 -21 -377 29 -386 25 -5 81 57 116 127 127 252
218 767 164 927 -21 62 -104 146 -192 193 -74 39 -157 50 -208 27z"/>
<path d="M6560 6305 c-273 -50 -591 -243 -661 -401 -13 -28 -18 -55 -15 -71
13 -51 120 -67 246 -37 76 18 234 20 303 4 27 -6 74 -21 106 -34 95 -41 197
-49 566 -49 439 0 837 26 1039 68 111 23 112 37 5 90 -268 135 -1069 390
-1366 434 -89 14 -128 13 -223 -4z"/>
<path d="M7203 5489 c-86 -4 -175 -16 -224 -28 -320 -81 -800 -462 -940 -748
-54 -109 -52 -198 7 -263 54 -59 123 -82 268 -88 314 -12 720 105 1214 352
404 201 818 357 1127 422 186 39 260 64 306 105 l34 29 -27 24 c-96 86 -671
170 -1338 196 -146 5 -269 9 -275 8 -5 0 -74 -4 -152 -9z"/>
</g>
</svg>
